<svg enable-background="new 0 0 100 100" height="100" viewBox="0 0 100 100" width="100" xml:space="preserve" xmlns="http://www.w3.org/2000/svg"><defs>
	
<filter filterUnits="userSpaceOnUse" height="13.156" id="Adobe_OpacityMaskFilter" width="39.501" x="30.499" y="86.988">
		<feColorMatrix type="matrix" values="1 0 0 0 0  0 1 0 0 0  0 0 1 0 0  0 0 0 1 0"></feColorMatrix>
	</filter><linearGradient gradientUnits="userSpaceOnUse" id="SVGID_2_" x2="0" y1="87.1211" y2="100.2318">
			<stop offset="0" stop-color="#fff"></stop>
			<stop offset="1"></stop>
		</linearGradient><mask height="13.156" id="SVGID_1_" maskUnits="userSpaceOnUse" width="39.501" x="30.499" y="86.988">
	<g filter="url(#Adobe_OpacityMaskFilter)">
		
		<path d="m.488,86.986h100.453v13.158h-100.453z" fill="url(#SVGID_2_)"></path>
	</g>
</mask></defs>

<path d="m64.5,12.775h-28.501c-3.037,0-5.5,2.462-5.5,5.5v63.213c0,3.037 2.463,5.5 5.5,5.5h28.501c3.038,0 5.5-2.463 5.5-5.5v-63.213c0-3.037-2.462-5.5-5.5-5.5zm-17,5.225h6c.828,0 1.5.672 1.5,1.5s-.672,1.5-1.5,1.5h-6c-.828,0-1.5-.672-1.5-1.5s.672-1.5 1.5-1.5zm-6,0c.828,0 1.5.672 1.5,1.5s-.672,1.5-1.5,1.5-1.5-.671-1.5-1.5 .672-1.5 1.5-1.5zm9,65.988c-1.933,0-3.5-1.566-3.5-3.5s1.567-3.5 3.5-3.5 3.5,1.568 3.5,3.5-1.567,3.5-3.5,3.5zm16.501-10c0,.551-.45,1-1,1h-31.502c-.55,0-1-.449-1-1v-48.988c0-.55.45-1 1-1h31.502c.55,0 1,.45 1,1v48.988z"></path>


<path d="m64.5,86.988h-28.501c-3.037,0-5.5,2.463-5.5,5.5v7.656h3v-.158c0-.549.45-1 1-1h31.502c.55,0 1,.451 1,1v.158h2.999v-7.656c0-3.037-2.462-5.5-5.5-5.5zm-14,9.998c-1.933,0-3.5-1.566-3.5-3.5s1.567-3.5 3.5-3.5 3.5,1.568 3.5,3.5-1.567,3.5-3.5,3.5z" mask="url(#SVGID_1_)" opacity=".3"></path>
</svg>
